<?xml version="1.0" standalone="no"?>
<!DOCTYPE svg PUBLIC "-//W3C//DTD SVG 20010904//EN"
 "http://www.w3.org/TR/2001/REC-SVG-20010904/DTD/svg10.dtd">
<svg version="1.0" xmlns="http://www.w3.org/2000/svg"
 width="1950.000000pt" height="1950.000000pt" viewBox="0 0 1950.000000 1950.000000"
 preserveAspectRatio="xMidYMid meet">
<metadata>
Created by potrace 1.11, written by Peter Selinger 2001-2013
</metadata>
<g transform="translate(0.000000,1950.000000) scale(0.100000,-0.100000)"
fill="#000000" stroke="none">
<path d="M4570 10555 l0 -4405 36 0 c27 0 43 -7 63 -29 21 -23 39 -31 82 -36
30 -3 540 -5 1134 -3 1149 3 1109 1 1137 51 10 17 14 436 18 2062 3 1122 9
2046 13 2053 5 6 14 12 20 12 7 0 462 -733 1011 -1630 578 -942 1006 -1630
1014 -1630 8 0 29 -13 48 -29 46 -41 79 -43 644 -39 552 3 521 -1 581 90 20
29 451 751 959 1603 508 853 948 1591 979 1640 l56 90 6 -90 c4 -49 9 -846 13
-1770 3 -924 9 -1830 12 -2012 l7 -333 35 0 c27 0 42 -7 57 -26 11 -14 37 -29
60 -34 53 -13 2167 -13 2220 0 52 12 72 38 81 106 8 65 -14 8503 -22 8583 -5
43 -12 61 -35 82 -22 20 -29 36 -29 63 l0 36 -1067 0 -1068 -1 -1455 -2451
c-801 -1348 -1459 -2451 -1464 -2452 -4 0 -653 1059 -1442 2354 -788 1295
-1449 2375 -1468 2400 -20 25 -52 69 -72 98 l-37 52 -1063 0 -1064 0 0 -4405z"/>
</g>
</svg>
